<?xml version="1.0" standalone="no"?>
<!DOCTYPE svg PUBLIC "-//W3C//DTD SVG 20010904//EN"
 "http://www.w3.org/TR/2001/REC-SVG-20010904/DTD/svg10.dtd">
<svg version="1.0" xmlns="http://www.w3.org/2000/svg"
 width="512.000000pt" height="512.000000pt" viewBox="0 0 512.000000 512.000000"
 preserveAspectRatio="xMidYMid meet">
<metadata>
Created by potrace 1.11, written by Peter Selinger 2001-2013
</metadata>
<g transform="translate(0.000000,512.000000) scale(0.100000,-0.100000)"
fill="#000000" stroke="none">
<path d="M4655 4411 c-16 -4 -40 -13 -53 -20 -18 -10 -412 -349 -632 -545 -19
-17 -69 -60 -110 -96 -41 -36 -77 -67 -80 -70 -3 -3 -39 -34 -80 -70 -41 -36
-93 -81 -115 -101 -71 -65 -105 -91 -105 -81 0 16 -117 130 -182 177 -105 78
-257 139 -400 160 -57 9 -1484 9 -1528 1 -167 -32 -269 -71 -380 -145 -165
-110 -293 -282 -354 -478 -35 -112 -38 -162 -40 -618 -3 -421 -7 -466 -52
-609 -53 -165 -134 -295 -280 -447 -62 -65 -85 -96 -94 -129 -15 -55 -9 -134
14 -181 55 -115 210 -168 324 -110 44 22 44 22 124 99 l55 54 23 -44 c99 -192
300 -351 537 -425 l88 -28 770 0 c424 0 788 3 810 6 252 39 480 191 619 411
l49 77 66 -65 c74 -72 125 -101 190 -107 145 -14 264 96 264 244 0 73 -28 132
-91 191 -153 145 -250 305 -309 509 l-27 94 -3 433 -4 434 33 30 c18 16 57 50
87 76 30 26 59 52 65 57 10 9 57 51 221 194 30 27 249 218 295 258 30 26 58
50 126 109 295 256 420 373 441 414 58 114 4 269 -113 325 -42 20 -125 28
-169 16z m-1751 -1145 c67 -24 116 -57 171 -113 l46 -48 -34 -30 c-34 -30
-549 -482 -666 -584 -35 -31 -69 -60 -75 -66 -19 -17 -170 -148 -187 -162 -14
-12 -47 17 -271 242 -279 279 -305 298 -404 296 -65 0 -118 -22 -162 -64 -88
-84 -104 -220 -36 -313 47 -64 705 -712 741 -730 59 -29 166 -26 220 6 34 20
193 156 522 446 20 18 79 69 132 115 272 239 279 244 280 232 4 -61 -1 -960
-6 -984 -33 -152 -167 -280 -327 -315 -32 -7 -1406 -6 -1443 1 -16 4 -54 17
-82 30 -120 54 -197 149 -227 280 -17 73 -14 1422 3 1485 26 93 113 204 193
247 92 48 100 48 855 47 648 -1 712 -2 757 -18z"/>
</g>
</svg>
