<svg xmlns="http://www.w3.org/2000/svg" viewBox="0 0 347.08 118.1"><defs><style>.cls-1{isolation:isolate;}.cls-2{opacity:0.1;}.cls-3{fill:#ff6c22;}.cls-4{fill:#e0682b;}.cls-5{fill:#eceff1;}.cls-6,.cls-8{fill:#666;}.cls-6{opacity:0.18;mix-blend-mode:multiply;}.cls-7{fill:#333;}.cls-9{fill:#4d4d4d;}.cls-10{fill:#ccc;}.cls-11{fill:#b2b2b2;}.cls-12{fill:#999;}</style></defs><title>const</title><g class="cls-1"><g id="Layer_2" data-name="Layer 2"><g id="OBJECTS"><polygon class="cls-2" points="342.18 104.67 340.77 100.01 340.26 98.31 332.89 73.95 328.95 60.91 322.97 41.13 322.86 41.13 315.44 41.13 315.1 41.13 311.42 54.1 308.48 64.44 305.54 74.78 305.54 74.78 302.86 84.22 297.05 104.67 291.88 104.67 291.88 106.21 55.2 106.21 55.2 103.4 50.3 103.4 48.89 98.74 48.38 97.04 41.01 72.68 37.06 59.64 31.08 39.86 30.98 39.86 23.56 39.86 23.22 39.86 19.54 52.83 16.6 63.17 13.66 73.51 13.66 73.51 10.98 82.95 5.17 103.4 0 103.4 0 111.16 0.11 111.16 0.11 118.1 347.08 118.1 347.08 112.43 347.08 106.21 347.08 104.67 342.18 104.67"/><polygon class="cls-3" points="25.95 103.88 49.63 20.52 59.49 20.52 84.68 103.8 25.95 103.88"/><rect class="cls-4" x="20.11" y="101.29" width="70.17" height="9.86"/><polygon class="cls-5" points="67.1 45.67 44.95 37 41.21 50.16 72.11 62.24 67.1 45.67"/><polygon class="cls-5" points="37.48 63.3 33.74 76.45 82.13 95.38 77.12 78.8 37.48 63.3"/><polygon class="cls-6" points="82.27 95.38 81.61 93.22 72.25 62.24 67.23 45.67 59.63 20.52 50.07 20.52 56.39 41.42 57.67 45.67 57.67 45.67 61.4 58 62.68 62.24 66.41 74.56 71.42 91.13 72.05 93.22 72.7 95.38 74.5 101.3 80.86 101.3 84.06 101.3 82.27 95.38"/><polygon class="cls-7" points="243.45 0.27 264.14 111.32 253.04 111.32 233.15 0.27 243.45 0.27"/><polygon class="cls-8" points="238.56 0.27 259.25 111.32 248.15 111.32 228.26 0.27 238.56 0.27"/><polygon class="cls-7" points="128.21 0.27 148.89 111.32 137.79 111.32 117.9 0.27 128.21 0.27"/><polygon class="cls-8" points="123.32 0.27 144 111.32 132.91 111.32 113.01 0.27 123.32 0.27"/><polygon class="cls-9" points="101.62 0.27 81.01 111.32 92.11 111.32 111.9 0 101.62 0.27"/><polygon class="cls-10" points="225.6 60.34 109.51 60.34 105.82 56.77 221.91 0.27 225.6 3.85 225.6 60.34"/><polygon class="cls-5" points="105.82 56.77 119.73 56.77 105.82 39.85 105.82 56.77"/><polygon class="cls-5" points="153.17 0.27 199.64 56.77 221.91 56.77 221.91 51.21 180.01 0.27 153.17 0.27"/><polygon class="cls-5" points="105.82 0.27 105.82 7.14 146.63 56.77 172.73 56.77 126.26 0.27 105.82 0.27"/><polygon class="cls-5" points="221.91 0.27 206.92 0.27 221.91 18.5 221.91 0.27"/><polygon class="cls-3" points="105.82 39.85 119.73 56.77 146.63 56.77 105.82 7.14 105.82 39.85"/><polygon class="cls-3" points="126.26 0.27 172.73 56.77 199.64 56.77 153.17 0.27 126.26 0.27"/><polygon class="cls-3" points="206.92 0.27 180.01 0.27 221.91 51.21 221.91 18.5 206.92 0.27"/><polygon class="cls-11" points="225.6 60.34 221.91 56.77 105.82 56.77 109.45 60.4 225.6 60.34"/><polygon class="cls-9" points="226.95 0.27 206.34 111.32 217.44 111.32 237.44 0.27 226.95 0.27"/><rect class="cls-9" x="88.87" y="81.4" width="125.04" height="9.25"/><rect class="cls-12" x="87.36" y="77.07" width="125.04" height="9.25"/><polygon class="cls-12" points="95.52 0.27 74.92 111.32 86.01 111.32 105.81 0 95.52 0.27"/><polygon class="cls-12" points="221.91 0.27 201.3 111.32 212.4 111.32 232.1 0.27 221.91 0.27"/><polygon class="cls-3" points="247.73 103.88 271.41 20.52 281.27 20.52 306.46 103.8 247.73 103.88"/><rect class="cls-4" x="241.89" y="101.29" width="70.17" height="9.86"/><polygon class="cls-5" points="288.88 45.67 266.73 37 262.99 50.16 293.89 62.24 288.88 45.67"/><polygon class="cls-5" points="259.26 63.3 255.52 76.45 303.91 95.38 298.9 78.8 259.26 63.3"/><polygon class="cls-6" points="304.05 95.38 303.39 93.22 294.02 62.24 289.01 45.67 281.41 20.52 271.85 20.52 278.17 41.42 279.45 45.67 279.45 45.67 283.18 58 284.46 62.24 288.19 74.56 293.2 91.13 293.83 93.22 294.48 95.38 296.27 101.3 302.64 101.3 305.83 101.3 304.05 95.38"/></g></g></g></svg>