<?xml version="1.0" encoding="utf-8"?>
<!-- Generator: Adobe Illustrator 24.0.2, SVG Export Plug-In . SVG Version: 6.00 Build 0)  -->
<svg version="1.1" id="Layer_1" xmlns="http://www.w3.org/2000/svg" xmlns:xlink="http://www.w3.org/1999/xlink" x="0px" y="0px"
	 viewBox="0 0 1296 720" style="enable-background:new 0 0 1296 720;" xml:space="preserve">
<style type="text/css">
	.st0{opacity:5.000000e-02;fill:none;stroke:#FFFFFF;stroke-linecap:round;stroke-miterlimit:10;stroke-dasharray:2,8;}
	.st1{opacity:5.000000e-02;fill:none;stroke:#FFFFFF;stroke-linecap:round;stroke-miterlimit:10;stroke-dasharray:10,8;}
	
		.st2{opacity:5.000000e-02;fill:none;stroke:#FFFFFF;stroke-width:4;stroke-linecap:round;stroke-miterlimit:10;stroke-dasharray:0,13;}
</style>
<line class="st0" x1="1224" y1="720" x2="1296" y2="648"/>
<line class="st1" x1="1152" y1="720" x2="1296" y2="576"/>
<line class="st2" x1="1080" y1="720" x2="1296" y2="504"/>
<line class="st1" x1="1008" y1="720" x2="1296" y2="432"/>
<line class="st0" x1="936" y1="720" x2="1296" y2="360"/>
<line class="st1" x1="864" y1="720" x2="1296" y2="288"/>
<line class="st2" x1="792" y1="720" x2="1296" y2="216"/>
<line class="st1" x1="720" y1="720" x2="1296" y2="144"/>
<line class="st0" x1="648" y1="720" x2="1296" y2="72"/>
<line class="st1" x1="576" y1="720" x2="1296" y2="0"/>
<line class="st2" x1="504" y1="720" x2="1224" y2="0"/>
<line class="st1" x1="432" y1="720" x2="1152" y2="0"/>
<line class="st0" x1="360" y1="720" x2="1080" y2="0"/>
<line class="st1" x1="288" y1="720" x2="1008" y2="0"/>
<line class="st2" x1="216" y1="720" x2="936" y2="0"/>
<line class="st1" x1="144" y1="720" x2="864" y2="0"/>
<line class="st0" x1="72" y1="720" x2="792" y2="0"/>
<line class="st1" x1="0" y1="720" x2="720" y2="0"/>
<line class="st2" x1="0" y1="648" x2="648" y2="0"/>
<line class="st1" x1="0" y1="576" x2="576" y2="0"/>
<line class="st0" x1="0" y1="504" x2="504" y2="0"/>
<line class="st1" x1="0" y1="432" x2="432" y2="0"/>
<line class="st2" x1="0" y1="360" x2="360" y2="0"/>
<line class="st1" x1="0" y1="288" x2="288" y2="0"/>
<line class="st0" x1="0" y1="216" x2="216" y2="0"/>
<line class="st1" x1="0" y1="144" x2="144" y2="0"/>
<line class="st2" x1="0" y1="72" x2="72" y2="0"/>
</svg>
