<?xml version="1.0" encoding="utf-8"?>
<!-- Generator: Adobe Illustrator 24.0.2, SVG Export Plug-In . SVG Version: 6.00 Build 0)  -->
<svg version="1.1" id="Layer_1" xmlns="http://www.w3.org/2000/svg" xmlns:xlink="http://www.w3.org/1999/xlink" x="0px" y="0px"
	 viewBox="0 0 510.2 510.2" style="enable-background:new 0 0 510.2 510.2;" xml:space="preserve">
<style type="text/css">
	.st0{fill:#666666;}
	.st1{fill:#FFFFFF;}
	.st2{fill:#B3B3B3;}
	.st3{fill:#808080;}
	.st4{fill:#E6E6E6;}
</style>
<path class="st0" d="M255.1,496.1c-4.1,0-8.2-0.9-12-2.8L29,386.2c-9.1-4.5-14.8-13.8-14.8-23.9c0-10.1,5.7-19.4,14.8-23.9
	l214.2-107.1c7.5-3.8,16.4-3.8,23.9,0l214.2,107.1c9.1,4.5,14.8,13.8,14.8,23.9c0,10.1-5.7,19.4-14.8,23.9L267.1,493.2
	C263.3,495.1,259.2,496.1,255.1,496.1z M100.8,362.2l154.3,77.2l154.3-77.2L255.1,285L100.8,362.2z"/>
<g>
	<line class="st1" x1="40.9" y1="148" x2="40.9" y2="362.2"/>
	<path class="st2" d="M40.9,389c-14.8,0-26.8-12-26.8-26.8V148c0-14.8,12-26.8,26.8-26.8s26.8,12,26.8,26.8v214.2
		C67.7,377,55.7,389,40.9,389z"/>
</g>
<g>
	<line class="st1" x1="362.2" y1="94.5" x2="362.2" y2="308.7"/>
	<path class="st3" d="M362.2,335.4c-14.8,0-26.8-12-26.8-26.8V94.5c0-14.8,12-26.8,26.8-26.8c14.8,0,26.8,12,26.8,26.8v214.2
		C389,323.4,377,335.4,362.2,335.4z"/>
</g>
<g>
	<line class="st1" x1="255.1" y1="40.9" x2="255.1" y2="255.1"/>
	<path class="st3" d="M255.1,281.9c-14.8,0-26.8-12-26.8-26.8V40.9c0-14.8,12-26.8,26.8-26.8c14.8,0,26.8,12,26.8,26.8v214.2
		C281.9,269.9,269.9,281.9,255.1,281.9z"/>
</g>
<g>
	<line class="st1" x1="148" y1="94.5" x2="148" y2="308.7"/>
	<path class="st3" d="M148,335.4c-14.8,0-26.8-12-26.8-26.8V94.5c0-14.8,12-26.8,26.8-26.8s26.8,12,26.8,26.8v214.2
		C174.8,323.4,162.8,335.4,148,335.4z"/>
</g>
<g>
	<line class="st1" x1="148" y1="201.6" x2="148" y2="415.7"/>
	<path class="st2" d="M148,442.5c-14.8,0-26.8-12-26.8-26.8V201.6c0-14.8,12-26.8,26.8-26.8s26.8,12,26.8,26.8v214.2
		C174.8,430.5,162.8,442.5,148,442.5z"/>
</g>
<g>
	<line class="st1" x1="255.1" y1="255.1" x2="255.1" y2="469.3"/>
	<path class="st2" d="M255.1,496.1c-14.8,0-26.8-12-26.8-26.8V255.1c0-14.8,12-26.8,26.8-26.8c14.8,0,26.8,12,26.8,26.8v214.2
		C281.9,484.1,269.9,496.1,255.1,496.1z"/>
</g>
<g>
	<line class="st1" x1="362.2" y1="201.6" x2="362.2" y2="415.7"/>
	<path class="st2" d="M362.2,442.5c-14.8,0-26.8-12-26.8-26.8V201.6c0-14.8,12-26.8,26.8-26.8c14.8,0,26.8,12,26.8,26.8v214.2
		C389,430.5,377,442.5,362.2,442.5z"/>
</g>
<g>
	<line class="st1" x1="469.3" y1="148" x2="469.3" y2="362.2"/>
	<path class="st2" d="M469.3,389c-14.8,0-26.8-12-26.8-26.8V148c0-14.8,12-26.8,26.8-26.8s26.8,12,26.8,26.8v214.2
		C496.1,377,484.1,389,469.3,389z"/>
</g>
<path class="st4" d="M255.1,281.9c-4.1,0-8.2-0.9-12-2.8L29,172c-9.1-4.5-14.8-13.8-14.8-23.9s5.7-19.4,14.8-23.9L243.1,17
	c7.5-3.8,16.4-3.8,23.9,0l214.2,107.1c9.1,4.5,14.8,13.8,14.8,23.9s-5.7,19.4-14.8,23.9L267.1,279.1
	C263.3,280.9,259.2,281.9,255.1,281.9z M100.8,148l154.3,77.2L409.4,148L255.1,70.9L100.8,148z"/>
</svg>
