<svg id="Layer_1" data-name="Layer 1" xmlns="http://www.w3.org/2000/svg" viewBox="0 0 512 512"><defs><style>.cls-1{fill:#fff;}.cls-2{opacity:0.5;}</style></defs><title>load</title><path class="cls-1" d="M16,256c0,132.55,107.45,240,240,240C124.34,496,16,387.66,16,256Z"/><path class="cls-1" d="M298.32,85.14A176.25,176.25,0,0,1,426.86,213.68a32.1,32.1,0,0,0,33.91,24.41h0a32,32,0,0,0,28.31-39.46A240.35,240.35,0,0,0,313.37,22.92a32,32,0,0,0-39.46,28.31h0A32.1,32.1,0,0,0,298.32,85.14Z"/><g class="cls-2"><path class="cls-1" d="M256,432A176,176,0,0,1,228.91,82.07,32,32,0,0,0,256,50.46h0a32,32,0,0,0-36.88-31.64C104.08,36.56,16,136,16,256c0,132.22,107.78,240,240,240,120,0,219.44-88.08,237.18-203.12A32,32,0,0,0,461.54,256h0a32,32,0,0,0-31.61,27.09A176,176,0,0,1,256,432Z"/></g></svg>