<?xml version="1.0" encoding="utf-8"?>
<!-- Generator: Adobe Illustrator 24.0.2, SVG Export Plug-In . SVG Version: 6.00 Build 0)  -->
<svg version="1.1" id="Layer_1" xmlns="http://www.w3.org/2000/svg" xmlns:xlink="http://www.w3.org/1999/xlink" x="0px" y="0px"
	 viewBox="0 0 256 256" style="enable-background:new 0 0 256 256;" xml:space="preserve">
<style type="text/css">
	.st0{fill:#FFFFFF;}
	.st1{fill:#F2F2F2;}
	.st2{fill:none;stroke:#F2F2F2;stroke-width:8;stroke-miterlimit:10;}
</style>
<g>
	<rect x="0" class="st0" width="256" height="256"/>
</g>
<g>
	<path class="st1" d="M95.4,224h0.9c1.5,0,2.6-0.5,3.4-1.4c0.6-0.7,0.8-1.7,0.8-2.9c0-1.3-0.3-2.3-0.8-3.3c-0.1-0.2-0.2-0.3-0.2-0.3
		c0,0-0.1,0.1-0.3,0.3L98,218c0.5,1.2,0.8,2.1,0.8,2.6c0,0.1,0,0.2-0.1,0.3c-0.2,0.3-1,0.4-2.3,0.4h-1h-0.3c-0.5,0-0.8-0.2-1.1-0.5
		c-0.7-1.1-1.2-1.7-1.4-2c0-0.1-0.1-0.1-0.2,0l-1.5,2.1c0.8,1,1.3,1.9,1.4,2.5c0,0.1,0,0.3-0.1,0.5c-0.3,1.3-1.8,2.5-4.3,3.5
		c-0.5,0.2-0.7,0.3-0.7,0.4c0,0.2,0.4,0.5,1.1,0.9c0.5,0.3,1,0.5,1.2,0.5c0.3,0,0.6-0.1,1-0.3c1.3-0.6,2.2-1.6,2.8-3
		c0.3-0.6,0.5-1.3,0.6-2.1c0.3,0.2,0.7,0.4,1,0.4H95.4z"/>
	
		<rect x="95.4" y="226.1" transform="matrix(0.7047 -0.7095 0.7095 0.7047 -132.6714 135.4394)" class="st1" width="2.1" height="2.1"/>
	<rect x="98.4" y="226.1" transform="matrix(0.707 -0.7072 0.7072 0.707 -131.4983 136.8315)" class="st1" width="2" height="2"/>
	<path class="st1" d="M128.6,216.1c0,0-0.1,0.1-0.3,0.3l-1.3,1.6c0.5,1.2,0.8,2.1,0.8,2.6c0,0.1,0,0.2-0.1,0.3
		c-0.2,0.3-1,0.4-2.3,0.4h-0.9h-0.1h-1.8c0.3-0.6,0.5-1.2,0.5-1.9c0-0.7-0.1-1.2-0.3-1.7c-0.6-1-1.5-1.5-2.8-1.5l0,0
		c-1.6,0-3.2,1-4.9,2.9c-0.8,0.9-1.4,1.6-1.8,2.2c-0.6-0.1-1-0.6-1.1-1.4l-0.2-1.6h-1.2l-0.2,1.6c-0.1,0.9-0.8,1.4-2,1.4h0h-0.1
		h-0.9c-0.1-0.8-0.2-1.6-0.5-2.3c-0.5-1.2-1.3-1.8-2.4-1.8c-0.6,0-1,0.2-1.4,0.6c-0.5,0.5-1,1.3-1.2,2.2c-0.2,0.6-0.3,1.1-0.3,1.6
		c0,1.7,1.1,2.5,3.3,2.5l0.8,0c0,0.2-0.2,0.4-0.4,0.7c-0.7,1-2,1.9-3.9,2.6c-0.5,0.2-0.7,0.3-0.7,0.4c0,0.2,0.4,0.5,1.1,0.9
		c0.5,0.3,1,0.5,1.2,0.5c0.3,0,0.6-0.1,1-0.3c0.9-0.5,1.7-1.1,2.3-2c0.5-0.8,0.9-1.7,1.1-2.7h1h0.1h0.2c1,0,1.9-0.5,2.7-1.5
		c0.9,1,1.9,1.5,3.1,1.5h2.2c1.9,0,3.4-0.4,4.5-1.2c1,0.8,2,1.2,3,1.2h0.3h0.1h0.8c1.5,0,2.6-0.5,3.4-1.4c0.6-0.7,0.8-1.7,0.8-2.9
		c0-1.3-0.3-2.3-0.8-3.3C128.8,216.2,128.7,216.1,128.6,216.1z M104.5,221.3c-0.8,0-1.3-0.2-1.3-0.7c0-0.1,0-0.2,0.1-0.4
		c0.2-0.5,0.5-0.8,1.1-0.8c0.8,0,1.4,0.6,1.7,1.9L104.5,221.3z M121.1,220.9c-0.3,0.3-1.5,0.4-3.6,0.4h-2.8c1.7-1.7,3.2-2.5,4.6-2.5
		c1.2,0,1.8,0.4,2,1.3c0,0.1,0,0.1,0,0.2C121.4,220.5,121.3,220.7,121.1,220.9z"/>
	
		<rect x="124.6" y="212.4" transform="matrix(0.7071 -0.7071 0.7071 0.7071 -114.1646 151.3241)" class="st1" width="2.1" height="2.1"/>
	<rect x="127.6" y="212.4" transform="matrix(0.7072 -0.707 0.707 0.7072 -113.2754 153.4057)" class="st1" width="2" height="2"/>
	<path class="st1" d="M143.9,217.6l-1.3,1.9c0.5,0.9,0.9,1.8,1.1,2.5c0.1,0.5,0.1,0.9-0.2,1.3c-0.7,1.1-2,1.7-3.9,1.7
		c-1.6,0-2.7-0.4-3.3-1.2c-0.4-0.5-0.6-1.1-0.6-2c0-0.8,0.2-1.7,0.5-2.7l-1.1-0.4c-0.6,1.4-0.9,2.7-0.9,4.1c0,1.3,0.4,2.4,1.3,3.3
		c0.9,1,2.3,1.4,4.1,1.4c1.6,0,2.8-0.4,3.8-1.1c1.3-1,2-2.6,2-4.8c0-1.5-0.4-2.9-1.1-4.1C144.1,217.5,144,217.4,143.9,217.6z"/>
	
		<rect x="138.5" y="215.3" transform="matrix(0.7071 -0.7071 0.7071 0.7071 -112.1335 162.0401)" class="st1" width="2.2" height="2.2"/>
	<path class="st1" d="M149.6,217.2c-0.6,0-1,0.2-1.4,0.6c-0.5,0.5-1,1.3-1.2,2.2c-0.2,0.6-0.3,1.1-0.3,1.6c0,1,0.4,1.7,1.2,2.1
		c0.5,0.3,1.3,0.4,2.3,0.4l0.7,0c-0.1,0.2-0.2,0.4-0.4,0.7c-0.7,1-2,1.8-3.9,2.6c-0.5,0.2-0.7,0.3-0.7,0.4c0,0.2,0.4,0.5,1.1,0.9
		c0.5,0.3,1,0.5,1.2,0.5c0.3,0,0.6-0.1,1-0.3c1-0.5,1.8-1.2,2.4-2.1c0.8-1.2,1.1-2.6,1.1-4.5c0-1.2-0.2-2.2-0.6-3.2
		C151.5,217.8,150.7,217.2,149.6,217.2z M150.8,221.4c-0.9,0.1-1.6,0.1-2-0.1c-0.4-0.1-0.6-0.3-0.6-0.6c0-0.1,0-0.2,0.1-0.4
		c0.2-0.5,0.5-0.8,1.1-0.8c0.8,0,1.4,0.6,1.7,1.9L150.8,221.4z"/>
	<path class="st1" d="M167.2,216.3c-0.1-0.2-0.2-0.3-0.2-0.3c0,0-0.1,0.1-0.3,0.3l-1.3,1.6c0.5,1.2,0.8,2.1,0.8,2.6
		c0,0.1,0,0.2-0.1,0.3c-0.2,0.3-0.8,0.4-1.8,0.4h-0.9h-0.1h-0.1c-1,0-1.6-0.6-1.9-1.7l-1.3-4.9c-0.1-0.3-0.2-0.5-0.2-0.5
		c0,0-0.2,0.1-0.4,0.4l-1.2,1.3l1.2,4.2c0.2,0.8-0.6,1.2-2.5,1.2c-1.2,0-1.8-0.3-1.8-0.9l0-0.3l-1.2-0.1c-0.1,0.6-0.2,1-0.2,1.3
		c0,1.9,1,2.8,3,2.8c1.6,0,2.8-0.6,3.6-1.9c0.4,1.3,1.3,1.9,2.7,1.9h0.2h0.1h0.7c1.2,0,2.2-0.5,3-1.4c0.6-0.7,0.8-1.7,0.8-2.9
		C168,218.4,167.7,217.3,167.2,216.3z"/>
	
		<rect x="164.2" y="226" transform="matrix(0.7069 -0.7073 0.7073 0.7069 -112.1534 183.47)" class="st1" width="2.2" height="2.2"/>
</g>
<circle class="st2" cx="128" cy="128" r="64"/>
<line class="st2" x1="173.3" y1="82.7" x2="82.7" y2="173.3"/>
</svg>
