<?xml version="1.0" encoding="utf-8"?>
<!-- Generator: Adobe Illustrator 24.0.2, SVG Export Plug-In . SVG Version: 6.00 Build 0)  -->
<svg version="1.1" id="Layer_1" xmlns="http://www.w3.org/2000/svg" xmlns:xlink="http://www.w3.org/1999/xlink" x="0px" y="0px"
	 viewBox="0 0 17 25" style="enable-background:new 0 0 17 25;" xml:space="preserve">
<style type="text/css">
	.st0{fill:#ffffff08;}
</style>
<g>
	<g>
		<path class="st0" d="M16.7,25c-0.1,0-0.2,0-0.3,0c-0.6-1.1-1-2.1-1.4-3.2c-0.4-1.2-0.8-2.4-1.1-3.6c-0.2-0.5-0.3-1.1-0.5-1.6
			c-0.2-0.6-0.6-1.1-1.2-1.5c-0.4-0.3-0.9-0.5-1.3-0.7c-0.6-0.2-1.2-0.4-1.8-0.6c-0.8-0.2-1.6-0.5-2.4-0.6c-0.8-0.2-1.5-0.3-2.2-0.5
			c-0.7-0.2-1.4-0.4-2-0.6c-1.1-0.5-1.8-1.2-2-2.3C0.3,9.4,0.3,8.9,0.3,8.4c0-0.9,0.1-1.7,0.1-2.5c0.1-1.4,0-2.7-0.3-4
			C0.1,1.7,0,1.5,0,1.3C0,1,0,0.6,0,0.2c0,0.1,0.1,0.3,0.1,0.4c0.4,1.3,0.6,2.6,0.6,4c0,0.9,0,1.7,0,2.6c0,0.6,0,1.3,0.1,1.9
			c0.1,0.5,0.2,1,0.5,1.4c0.4,0.6,0.9,1,1.6,1.3c0.6,0.3,1.3,0.5,1.9,0.7c0.7,0.2,1.5,0.3,2.2,0.5c1.1,0.3,2.1,0.6,3.2,0.8
			c0.6,0.2,1.1,0.3,1.7,0.6c0.8,0.4,1.3,0.9,1.7,1.5c0.1,0.2,0.2,0.5,0.3,0.7c0.2,0.7,0.4,1.5,0.6,2.2c0.4,1.5,0.8,2.9,1.5,4.3
			C16.1,23.9,16.4,24.4,16.7,25z"/>
		<path class="st0" d="M17,24.6c0,0.1,0,0.3,0,0.4c0,0,0,0,0,0c0,0,0,0,0-0.1c-0.8-1.5-1.5-3.1-1.9-4.7c-0.3-1-0.5-2.1-0.7-3.1
			c-0.1-0.4-0.2-0.9-0.4-1.3c-0.3-0.7-0.8-1.2-1.5-1.5c-0.4-0.2-0.7-0.3-1.1-0.4c-0.6-0.2-1.2-0.3-1.8-0.5c-0.9-0.2-1.8-0.5-2.7-0.7
			c-0.6-0.2-1.2-0.3-1.8-0.5c-0.6-0.2-1.2-0.4-1.8-0.7c-1-0.5-1.6-1.3-1.8-2.2c-0.1-0.3-0.1-0.7-0.2-1c0-0.7-0.1-1.3-0.1-2
			C1,5,1,3.8,0.8,2.6C0.7,1.7,0.5,0.9,0.2,0c0.1,0,0.2,0,0.3,0c0,0,0,0.1,0,0.1C1,1.3,1.2,2.6,1.3,3.8c0.1,0.9,0.1,1.8,0.2,2.7
			c0,0.6,0.1,1.3,0.2,1.9c0.1,0.5,0.2,1,0.5,1.4c0.4,0.6,0.9,1.1,1.6,1.5c0.6,0.3,1.3,0.6,2,0.8c0.8,0.2,1.6,0.4,2.4,0.6
			c0.9,0.2,1.9,0.5,2.8,0.7c0.6,0.1,1.2,0.3,1.7,0.6c0.7,0.3,1.2,0.8,1.5,1.4c0.2,0.4,0.3,0.8,0.3,1.2c0.1,0.8,0.3,1.6,0.4,2.4
			C15.3,20.9,16,22.7,17,24.6C17,24.5,17,24.6,17,24.6z"/>
		<path class="st0" d="M17,23.7c0,0.2,0,0.3,0,0.5c0,0,0,0,0-0.1c-0.4-0.8-0.8-1.6-1.1-2.5c-0.5-1.5-0.8-3.1-1-4.7
			c0-0.5-0.1-0.9-0.2-1.4c-0.1-0.4-0.3-0.7-0.5-1c-0.3-0.4-0.8-0.7-1.3-0.9c-0.5-0.2-1.1-0.4-1.7-0.5c-1.7-0.3-3.3-0.8-4.9-1.2
			c-0.7-0.2-1.4-0.4-2.1-0.8C3.6,10.7,3,10.3,2.6,9.8C2.3,9.4,2.2,8.9,2,8.4C1.8,7.7,1.8,7,1.7,6.3c-0.1-1-0.1-2-0.2-3
			C1.4,2.5,1.3,1.7,1.1,0.8C1,0.6,0.9,0.3,0.8,0C1,0,1.1,0,1.2,0c0,0,0,0,0,0C1.5,1.3,1.7,2.6,1.9,4C1.9,4.9,2,5.8,2.1,6.7
			c0.1,0.6,0.2,1.1,0.3,1.7c0.2,0.7,0.6,1.3,1.2,1.9c0.6,0.5,1.3,0.9,2.1,1.2c1.2,0.4,2.4,0.7,3.6,1c0.7,0.2,1.5,0.3,2.2,0.5
			c0.6,0.1,1.1,0.2,1.6,0.4c0.8,0.3,1.4,0.8,1.6,1.6c0.1,0.4,0.2,0.8,0.2,1.3c0,0.5,0.1,1.1,0.1,1.6c0.2,1.8,0.7,3.6,1.4,5.3
			C16.8,23.3,16.9,23.5,17,23.7z"/>
		<path class="st0" d="M1.5,0c0.1,0,0.2,0,0.3,0c0,0,0,0,0,0.1C2,1,2.2,2,2.3,2.9c0.1,1,0.2,1.9,0.4,2.9c0.1,0.6,0.2,1.3,0.4,1.9
			c0.5,1.4,1.4,2.4,3,3c0.5,0.2,1.1,0.4,1.6,0.6c0.9,0.3,1.8,0.6,2.7,0.7c0.8,0.1,1.5,0.2,2.3,0.4c0.5,0.1,1.1,0.2,1.6,0.4
			c0.5,0.2,1,0.5,1.2,0.9c0.1,0.2,0.2,0.4,0.2,0.6c0.1,0.5,0.1,1,0.1,1.4c0,0.7-0.1,1.4,0,2.1c0.1,1.6,0.5,3.2,1.1,4.8
			c0,0,0,0,0,0.1c0,0.2,0,0.4,0,0.5c0,0,0,0,0-0.1c-0.1-0.2-0.2-0.5-0.3-0.7c-0.5-1.2-0.8-2.5-1-3.7c-0.1-0.8-0.1-1.5-0.2-2.3
			c0-0.5,0-1-0.1-1.6c-0.1-0.4-0.2-0.7-0.5-1c-0.3-0.4-0.7-0.6-1.3-0.8c-0.5-0.2-1.1-0.3-1.6-0.4c-0.7-0.1-1.5-0.3-2.2-0.4
			c-0.9-0.2-1.8-0.5-2.7-0.7c-0.6-0.2-1.1-0.4-1.6-0.6C4.1,10.3,3.2,9.3,2.8,8C2.6,7.5,2.5,6.9,2.4,6.3C2.3,5.3,2.2,4.2,2,3.2
			C1.9,2.3,1.8,1.4,1.6,0.6C1.6,0.4,1.5,0.2,1.5,0z"/>
		<path class="st0" d="M2.1,0c0.1,0,0.2,0,0.3,0c0,0,0,0,0,0.1c0.2,1.1,0.3,2.2,0.5,3.3C3,4.2,3.2,5,3.3,5.8C3.4,6.4,3.6,7,3.8,7.6
			c0.5,1.1,1.3,2,2.6,2.6c0.5,0.2,1,0.4,1.6,0.6c0.8,0.3,1.7,0.5,2.5,0.7c0.8,0.1,1.6,0.2,2.4,0.3c0.6,0.1,1.2,0.1,1.8,0.2
			c0.3,0.1,0.6,0.1,0.9,0.2c0.6,0.2,0.9,0.6,1,1.1c0,0.2,0.1,0.4,0.1,0.5c0,0.6-0.1,1.2-0.2,1.8c-0.1,0.6-0.2,1.3-0.2,1.9
			c0,1.2,0.1,2.3,0.5,3.5c0,0.2,0.1,0.3,0.2,0.5c0,0.2,0,0.4,0,0.7c0,0,0,0,0-0.1c-0.1-0.4-0.3-0.7-0.4-1.1
			c-0.5-1.5-0.6-3.1-0.5-4.6c0-0.6,0.1-1.2,0.1-1.7c0-0.3,0-0.6-0.1-1c-0.2-0.6-0.5-1-1.2-1.2c-0.4-0.1-0.7-0.2-1.1-0.3
			c-0.7-0.1-1.4-0.2-2.1-0.3c-1.2-0.2-2.4-0.4-3.5-0.8c-0.7-0.2-1.4-0.5-2.1-0.8c-1-0.5-1.8-1.1-2.3-1.9C3.5,8,3.3,7.4,3.2,6.8
			C3,5.9,2.8,5.1,2.7,4.2C2.6,3,2.4,1.9,2.2,0.8C2.2,0.5,2.1,0.3,2.1,0z"/>
		<path class="st0" d="M0,10.5C0,10.5,0,10.5,0,10.5c0.3,0.9,0.9,1.5,1.8,1.9c0.6,0.2,1.1,0.4,1.8,0.5c0.8,0.2,1.7,0.4,2.5,0.5
			c1,0.2,1.9,0.4,2.8,0.7c0.6,0.2,1.2,0.4,1.8,0.6c0.5,0.2,1,0.4,1.4,0.8c0.5,0.4,0.8,0.9,1,1.4c0.3,0.6,0.5,1.3,0.7,1.9
			c0.4,1.3,0.8,2.6,1.4,3.9c0.3,0.8,0.7,1.5,1,2.3c0,0,0,0,0,0.1c-0.1,0-0.2,0-0.3,0c0,0,0,0,0-0.1c-0.3-0.6-0.5-1.1-0.8-1.7
			c-0.6-1.3-1.1-2.7-1.5-4.1c-0.2-0.7-0.5-1.4-0.8-2.1c-0.2-0.4-0.4-0.8-0.7-1.1c-0.4-0.5-1-0.8-1.6-1.1c-0.5-0.2-1.1-0.4-1.6-0.6
			c-0.9-0.3-1.7-0.5-2.6-0.7c-0.9-0.2-1.8-0.3-2.8-0.5c-0.7-0.1-1.3-0.3-2-0.5C1,12.5,0.4,12.3,0,11.9c0,0,0,0,0,0
			C0,11.4,0,10.9,0,10.5z"/>
		<path class="st0" d="M17,12.4c0,0-0.1-0.1-0.1-0.1c-0.1-0.2-0.3-0.3-0.5-0.4c-0.4-0.2-0.8-0.3-1.2-0.3c-0.7-0.1-1.3-0.1-2-0.2
			c-0.8-0.1-1.7-0.1-2.5-0.2c-0.9-0.1-1.8-0.4-2.7-0.7c-0.5-0.2-1-0.4-1.5-0.6C5.4,9.3,4.6,8.5,4.2,7.5C3.9,6.8,3.7,6.2,3.5,5.5
			C3.4,4.7,3.3,3.8,3.1,3C3,2,2.8,1,2.7,0.1c0,0,0,0,0-0.1C2.8,0,2.9,0,3,0c0,0,0,0,0,0.1c0.1,0.7,0.2,1.3,0.3,2
			c0.1,1.1,0.3,2.1,0.5,3.1c0.1,0.7,0.3,1.4,0.6,2c0.5,1,1.2,1.8,2.2,2.3c1,0.5,2,0.9,3.1,1.2c0.9,0.2,1.8,0.3,2.7,0.4
			c0.9,0,1.8,0.1,2.6,0.1c0.6,0,1.3,0.1,1.9,0.2C17,11.8,17,12.1,17,12.4z"/>
		<path class="st0" d="M0,13.3c0-0.2,0-0.4,0-0.6c0.2,0.1,0.4,0.2,0.5,0.2c0.5,0.2,1,0.3,1.5,0.4c1,0.2,2,0.3,3,0.5
			c1.2,0.2,2.4,0.4,3.5,0.8c0.6,0.2,1.2,0.4,1.7,0.6c0.6,0.3,1.2,0.6,1.6,1.1c0.3,0.4,0.6,0.8,0.8,1.2c0.3,0.7,0.6,1.4,0.9,2.1
			c0.6,1.5,1.1,3.1,1.8,4.6c0.1,0.3,0.3,0.6,0.4,0.9c-0.1,0-0.2,0-0.3,0c0,0,0,0,0-0.1c-0.3-0.6-0.5-1.2-0.8-1.7
			c-0.5-1.2-1-2.4-1.5-3.6c-0.3-0.7-0.6-1.3-0.9-2c-0.5-1-1.3-1.7-2.5-2.2c-0.4-0.2-0.8-0.3-1.2-0.5c-0.7-0.3-1.5-0.5-2.2-0.6
			c-1-0.2-2.1-0.3-3.2-0.5C2.2,13.7,1,13.6,0,13.3z"/>
		<path class="st0" d="M3.3,0c0.1,0,0.2,0,0.3,0c0.1,0.5,0.1,1.1,0.2,1.6c0.1,1.1,0.3,2.1,0.5,3.2c0.2,0.7,0.4,1.3,0.7,2
			c0.3,0.7,0.8,1.3,1.4,1.8c0.4,0.4,0.9,0.6,1.5,0.9c0.8,0.3,1.6,0.7,2.5,0.8c0.8,0.2,1.6,0.2,2.5,0.2c1.1,0,2.2,0,3.3-0.1
			c0.3,0,0.6,0,0.9,0c0,0.2,0,0.3,0,0.5c-0.6,0-1.1,0-1.7,0c-1,0-2,0-3,0c-0.8,0-1.6-0.1-2.3-0.3C9.1,10.3,8.2,10,7.4,9.6
			C6.5,9.2,5.8,8.7,5.3,8C4.9,7.4,4.6,6.8,4.4,6.2C4.1,5.3,3.9,4.3,3.7,3.4c-0.1-1-0.3-2-0.4-2.9C3.3,0.3,3.3,0.1,3.3,0z"/>
		<path class="st0" d="M17,9.6c0,0.1,0,0.3,0,0.4c-0.5,0-1,0.1-1.5,0.1c-1.1,0.1-2.3,0.1-3.4,0.1c-0.8,0-1.5-0.1-2.3-0.4
			C9,9.6,8.3,9.4,7.7,9C6.9,8.6,6.2,8.1,5.8,7.4C5.4,6.9,5.1,6.3,4.9,5.7c-0.4-1-0.5-2-0.7-3.1C4.1,2,4,1.3,4,0.6
			c0-0.2,0-0.4-0.1-0.6C4,0,4.1,0,4.2,0c0,0.1,0,0.2,0,0.2C4.3,1.5,4.5,2.8,4.8,4c0.2,0.8,0.4,1.5,0.7,2.2C5.8,7,6.3,7.6,6.9,8.1
			c0.5,0.4,1.1,0.7,1.7,1c0.9,0.4,1.9,0.7,2.9,0.8c0.9,0.1,1.8,0.1,2.7,0C15.1,9.9,16,9.8,17,9.6z"/>
		<path class="st0" d="M0,14.2c0-0.1,0-0.3,0-0.4c0,0,0,0,0.1,0c0.5,0.1,1.1,0.2,1.6,0.2c1.2,0.1,2.3,0.3,3.5,0.4
			c1.6,0.2,3.1,0.7,4.6,1.3c0.7,0.3,1.4,0.8,1.9,1.4c0.3,0.4,0.6,0.9,0.8,1.3c0.4,0.8,0.7,1.5,1,2.3c0.6,1.4,1.2,2.9,1.8,4.3
			c-0.1,0-0.2,0-0.3,0c0,0,0-0.1,0-0.1c-0.2-0.5-0.5-1.1-0.7-1.6c-0.5-1.2-1-2.4-1.5-3.6c-0.3-0.6-0.6-1.3-1-1.9
			c-0.5-0.8-1.2-1.4-2.2-1.9c-0.3-0.1-0.6-0.3-0.9-0.4c-1.2-0.5-2.4-0.8-3.7-1c-1-0.1-2.1-0.2-3.1-0.3C1.2,14.3,0.6,14.2,0,14.2z"/>
		<path class="st0" d="M17,9c0,0.1,0,0.2,0,0.3c-0.3,0-0.5,0.1-0.8,0.1c-1.2,0.2-2.4,0.3-3.6,0.3c-0.7,0-1.3-0.1-2-0.2
			c-1.1-0.2-2.1-0.7-3-1.2C7.1,7.9,6.6,7.4,6.2,6.9C5.9,6.5,5.7,6,5.5,5.6C5.2,4.7,4.9,3.8,4.8,2.8C4.7,1.9,4.6,0.9,4.5,0
			c0.1,0,0.2,0,0.3,0c0,1.2,0.1,2.4,0.4,3.5C5.4,4.3,5.6,5,5.9,5.7c0.3,0.6,0.7,1.2,1.2,1.7C7.9,8.2,9,8.7,10.1,9
			c0.8,0.3,1.6,0.3,2.5,0.4c0.9,0,1.8,0,2.7-0.2C15.8,9.2,16.4,9.1,17,9z"/>
		<path class="st0" d="M0,14.9c0-0.1,0-0.2,0-0.4c0,0,0.1,0,0.1,0c0.4,0,0.8,0,1.1,0.1c1.1,0.1,2.2,0.1,3.3,0.2
			c0.8,0.1,1.5,0.2,2.3,0.4c0.8,0.2,1.6,0.5,2.3,0.9c1,0.4,1.7,1.1,2.3,1.9c0.4,0.5,0.7,1,0.9,1.6c0.5,1,0.9,2,1.3,3
			c0.4,0.8,0.7,1.7,1.1,2.5c-0.1,0-0.2,0-0.3,0c-0.1-0.2-0.2-0.5-0.3-0.7c-0.6-1.3-1.1-2.5-1.7-3.8c-0.3-0.7-0.7-1.3-1.1-2
			c-0.4-0.6-1-1.2-1.7-1.7c-0.5-0.3-1.1-0.6-1.7-0.9c-0.8-0.4-1.7-0.6-2.6-0.7c-1.1-0.2-2.2-0.2-3.4-0.3C1.4,14.9,0.7,14.9,0,14.9z"
			/>
		<path class="st0" d="M17,8.4c0,0.1,0,0.2,0,0.3c0,0,0,0,0,0c-1.1,0.2-2.1,0.4-3.2,0.4c-0.7,0-1.3,0-2,0C10.7,9,9.9,8.7,9,8.3
			C7.9,7.8,7.1,7.1,6.5,6.2C6.2,5.6,5.9,4.9,5.7,4.3C5.3,2.9,5.2,1.4,5.2,0c0.1,0,0.2,0,0.4,0c0,0.9,0,1.7,0.1,2.6
			C5.8,3.5,6,4.3,6.4,5.2C6.9,6.4,7.7,7.3,9,8c0.6,0.3,1.2,0.6,1.9,0.7c0.9,0.2,1.9,0.2,2.8,0.2c1.1-0.1,2.1-0.2,3.2-0.4
			C16.9,8.4,17,8.4,17,8.4z"/>
		<path class="st0" d="M0,15.5c0-0.1,0-0.2,0-0.3c0,0,0.1,0,0.1,0c0.4,0,0.8,0,1.2,0c1,0,2.1,0,3.1,0.1c0.7,0.1,1.4,0.2,2.1,0.3
			c0.6,0.1,1.2,0.4,1.7,0.6c1.3,0.6,2.3,1.4,3.1,2.4c0.5,0.6,0.8,1.3,1.2,2c0.7,1.3,1.2,2.7,1.8,4.1c0,0.1,0.1,0.2,0.1,0.2
			c-0.1,0-0.2,0-0.3,0c0,0,0-0.1,0-0.1c-0.4-0.8-0.7-1.6-1.1-2.4c-0.4-0.9-0.8-1.8-1.3-2.6c-0.4-0.6-0.8-1.2-1.4-1.8
			c-0.7-0.7-1.5-1.2-2.4-1.6c-0.8-0.4-1.6-0.7-2.5-0.8c-0.8-0.1-1.5-0.2-2.3-0.2c-1,0-1.9,0-2.9,0C0.1,15.5,0.1,15.5,0,15.5z"/>
		<path class="st0" d="M5.9,0C6,0,6.2,0,6.3,0c0,0.1,0,0.2,0,0.4C6.2,1.2,6.2,2.1,6.4,3c0.1,0.8,0.4,1.5,0.7,2.2
			c0.7,1.4,2,2.4,3.8,2.9c0.7,0.2,1.5,0.3,2.3,0.2c1,0,2-0.1,2.9-0.3c0.3-0.1,0.6-0.1,0.9-0.2c0,0.1,0,0.2,0,0.3c0,0-0.1,0-0.1,0
			c-0.5,0.1-0.9,0.2-1.4,0.3c-1,0.2-2.1,0.3-3.1,0.2c-0.9,0-1.8-0.2-2.6-0.6C8.9,7.6,8.2,7.2,7.7,6.6C7.2,6,6.8,5.4,6.6,4.8
			C6,3.4,5.8,1.9,5.9,0.4C5.9,0.3,5.9,0.1,5.9,0z"/>
		<path class="st0" d="M9.7,0c0.2,0,0.4,0,0.6,0c-0.1,0.2-0.2,0.3-0.3,0.5C9.6,1.2,9.4,2,9.5,2.7c0.3,1.9,2.2,3.2,4.1,3.2
			c0.7,0,1.3,0,2-0.1c0.5-0.1,0.9-0.1,1.4-0.2c0,0.1,0,0.2,0,0.3c-0.3,0.1-0.6,0.1-0.9,0.2c-0.8,0.1-1.6,0.2-2.4,0.2
			c-1.7,0-3-0.7-3.9-1.8C8.8,3.3,8.7,2,9.4,0.6C9.5,0.4,9.6,0.2,9.7,0z"/>
		<path class="st0" d="M7.6,0c0.2,0,0.4,0,0.5,0C7.9,0.4,7.8,0.7,7.7,1.1C7.6,2,7.7,2.9,8,3.8c0.5,1.4,1.5,2.4,3.1,3
			c0.6,0.3,1.3,0.3,2,0.4c0.8,0,1.5,0,2.3-0.2c0.5-0.1,1.1-0.2,1.6-0.3c0,0.1,0,0.2,0,0.3c-0.2,0-0.4,0.1-0.7,0.1
			c-1,0.2-1.9,0.3-2.9,0.4c-0.7,0-1.3,0-2-0.2C10,6.9,8.8,6.1,8.1,4.9C7.4,3.7,7.2,2.5,7.3,1.2C7.3,0.8,7.4,0.4,7.6,0z"/>
		<path class="st0" d="M8.6,0C8.8,0,9,0,9.2,0C8.6,0.9,8.4,1.9,8.6,3c0.2,1,0.8,1.9,1.7,2.6c0.8,0.5,1.6,0.9,2.7,1
			c0.6,0,1.3,0,1.9,0c0.7-0.1,1.4-0.2,2.1-0.3c0,0.1,0,0.2,0,0.3c-1,0.2-1.9,0.4-2.9,0.4c-0.7,0-1.3,0-1.9-0.1
			c-1.3-0.3-2.3-0.9-3-1.8C8.6,4.4,8.3,3.8,8.2,3.1C7.9,2,8,1,8.6,0z"/>
		<path class="st0" d="M17,7.3c0,0.1,0,0.2,0,0.3c-0.4,0.1-0.7,0.1-1.1,0.2c-1,0.2-2,0.3-3,0.3c-0.7,0-1.5-0.1-2.2-0.3
			C9.2,7.2,8,6.3,7.3,4.9C7,4.2,6.8,3.5,6.7,2.8C6.5,2,6.5,1.1,6.6,0.3c0-0.1,0-0.2,0-0.3C6.8,0,7,0,7.1,0C7.1,0.1,7,0.2,7,0.4
			C6.9,1.1,6.9,1.8,7,2.5c0.1,0.8,0.3,1.6,0.7,2.4C8.4,6.2,9.6,7,11.1,7.5c0.7,0.2,1.4,0.3,2.1,0.3c0.9,0,1.8-0.1,2.8-0.3
			C16.3,7.4,16.7,7.3,17,7.3z"/>
		<path class="st0" d="M0,16.1c0-0.1,0-0.2,0-0.3c0.4,0,0.7,0,1.1,0c1,0,1.9,0,2.9,0c0.5,0,1.1,0.1,1.6,0.2c0.8,0.1,1.5,0.4,2.2,0.8
			c1.3,0.6,2.3,1.4,3,2.4c0.4,0.5,0.7,1,1,1.5c0.6,1.1,1.1,2.2,1.5,3.3c0.1,0.3,0.2,0.6,0.4,0.9c-0.1,0-0.2,0-0.3,0
			c-0.3-0.8-0.7-1.6-1-2.4c-0.4-0.9-0.8-1.7-1.4-2.6c-0.8-1.2-1.8-2.1-3.1-2.8c-0.5-0.3-1.1-0.6-1.7-0.7c-0.9-0.3-1.8-0.4-2.7-0.4
			c-0.8,0-1.6,0-2.4,0C0.8,16.1,0.4,16.1,0,16.1z"/>
		<path class="st0" d="M17,5.1c0,0.1,0,0.2,0,0.3c-0.3,0-0.5,0.1-0.8,0.1c-0.7,0.1-1.4,0.2-2.1,0.1c-0.7,0-1.3-0.1-2-0.4
			c-1.6-0.7-2.3-2-2.1-3.5c0.1-0.5,0.3-0.9,0.5-1.3c0.1-0.2,0.2-0.3,0.3-0.5c0.2,0,0.4,0,0.6,0c-0.1,0.2-0.2,0.5-0.4,0.7
			c-0.2,0.4-0.4,0.8-0.4,1.3c-0.1,1,0.2,1.8,1.1,2.5c0.7,0.6,1.6,0.9,2.6,0.9c0.6,0,1.3,0,1.9-0.1C16.5,5.2,16.8,5.2,17,5.1z"/>
		<path class="st0" d="M13.3,25c-0.1,0-0.2,0-0.3,0c0,0,0,0,0-0.1c-0.2-0.5-0.4-0.9-0.6-1.4c-0.4-1-0.9-1.9-1.5-2.8
			c-0.8-1.3-1.9-2.3-3.4-3.1c-0.7-0.4-1.5-0.7-2.3-0.9c-0.6-0.1-1.3-0.2-2-0.2c-0.9,0-1.8,0-2.6,0c-0.2,0-0.4,0-0.6,0
			c0-0.1,0-0.2,0-0.3c0,0,0,0,0.1,0c0.4,0,0.8,0,1.3,0c1,0,1.9,0,2.9,0.1c1.1,0.1,2.2,0.4,3.2,0.9c0.9,0.5,1.8,1,2.5,1.7
			c0.6,0.6,1.1,1.3,1.5,2c0.6,1,1.1,2.1,1.6,3.2C13,24.4,13.2,24.7,13.3,25z"/>
		<path class="st0" d="M11.9,0c0.2,0,0.4,0,0.6,0c0,0,0,0.1-0.1,0.1c-0.2,0.4-0.4,0.8-0.5,1.3c-0.1,0.5-0.1,0.9,0,1.4
			c0.3,0.8,1,1.4,1.9,1.7c0.5,0.2,1,0.2,1.5,0.2c0.5,0,1.1,0,1.6-0.1c0,0.1,0,0.2,0,0.3c-0.2,0-0.3,0-0.5,0.1
			C15.9,5,15.2,5.1,14.6,5c-0.7,0-1.3-0.2-1.8-0.5c-1-0.6-1.6-1.4-1.6-2.4c0-0.4,0.1-0.9,0.3-1.3C11.6,0.6,11.8,0.3,11.9,0z"/>
		<path class="st0" d="M0,17.1c0-0.1,0-0.2,0-0.3c0.4,0,0.9,0,1.3-0.1c1,0,1.9,0,2.9,0.1c0.7,0.1,1.5,0.2,2.1,0.5
			c0.7,0.3,1.3,0.6,1.9,1c1.1,0.7,1.9,1.5,2.5,2.5c0.6,1,1.1,2,1.6,3c0.2,0.4,0.3,0.7,0.4,1.1c-0.1,0-0.2,0-0.3,0c0,0,0,0,0,0
			c-0.5-1.3-1-2.6-1.8-3.8C9.7,19.9,8.5,18.8,7,18c-0.6-0.3-1.3-0.6-2-0.7c-0.8-0.2-1.7-0.2-2.6-0.2C1.6,17.1,0.8,17.1,0,17.1z"/>
		<path class="st0" d="M12.2,25c-0.1,0-0.2,0-0.3,0c0,0,0-0.1,0-0.1c-0.4-1.1-0.9-2.2-1.5-3.2c-0.9-1.4-2.1-2.4-3.7-3.2
			c-0.8-0.4-1.7-0.7-2.6-0.8c-0.8-0.1-1.6-0.1-2.4-0.1c-0.5,0-1.1,0-1.6,0.1c0-0.1,0-0.2,0-0.2c0,0,0.1,0,0.1,0c0.4,0,0.7,0,1.1,0
			c0.9,0,1.8,0,2.7,0.1c0.7,0.1,1.4,0.2,2,0.5c1.9,0.8,3.3,1.9,4.4,3.4c0.7,1,1.2,2,1.6,3.1C12,24.5,12.1,24.8,12.2,25z"/>
		<path class="st0" d="M11.6,25c-0.1,0-0.2,0-0.3,0c0,0,0,0,0,0c-0.3-0.9-0.7-1.8-1.2-2.7c-0.9-1.4-2.2-2.6-3.9-3.4
			c-0.7-0.3-1.4-0.6-2.2-0.7C3.1,18.1,2.4,18,1.6,18c-0.5,0-1.1,0-1.6,0.1c0-0.1,0-0.2,0-0.3c0,0,0.1,0,0.1,0c0.2,0,0.4,0,0.6,0
			c0.9,0,1.9-0.1,2.8,0c0.7,0.1,1.3,0.2,2,0.4c1.6,0.6,2.9,1.5,3.9,2.6c0.7,0.8,1.3,1.7,1.7,2.7C11.2,24,11.4,24.5,11.6,25z"/>
		<path class="st0" d="M0,19c0-0.1,0-0.2,0-0.3c0.1,0,0.2,0,0.3,0c0.8,0,1.6,0,2.5,0C3.4,18.9,4,19,4.7,19.2
			c1.4,0.5,2.6,1.3,3.6,2.3c1,1,1.6,2.2,1.9,3.4c-0.2,0-0.3,0-0.5,0c0,0,0-0.1,0-0.1c-0.1-0.7-0.4-1.3-0.7-1.9
			c-0.8-1.4-2.1-2.4-3.7-3.2c-0.6-0.3-1.2-0.5-1.9-0.7C2.2,19,1.1,19,0,19z"/>
		<path class="st0" d="M10.9,25c-0.1,0-0.3,0-0.4,0c0,0,0-0.1,0-0.1c-0.6-2.3-2.1-4.1-4.6-5.4c-0.5-0.3-1.1-0.5-1.7-0.7
			c-0.7-0.2-1.4-0.2-2.2-0.3c-0.7,0-1.3,0-2,0c0-0.1,0-0.2,0-0.2c1,0,2.1-0.1,3.1,0c0.6,0.1,1.3,0.2,1.9,0.4
			c1.4,0.5,2.6,1.3,3.6,2.2c0.8,0.8,1.4,1.7,1.9,2.7C10.6,24.1,10.8,24.5,10.9,25z"/>
		<path class="st0" d="M9.2,25c-0.2,0-0.4,0-0.5,0c0-0.1,0-0.2,0-0.3c-0.1-0.8-0.5-1.4-1-2.1c-0.7-0.9-1.5-1.5-2.6-2.1
			c-0.6-0.3-1.3-0.6-2.1-0.8c-0.6-0.1-1.3-0.2-1.9-0.2c-0.4,0-0.7,0-1.1,0c0-0.1,0-0.2,0-0.3c0,0,0.1,0,0.1,0c0.6,0,1.3,0,1.9,0
			c0.7,0,1.3,0.1,1.9,0.4c1.3,0.5,2.5,1.2,3.4,2.1c0.7,0.7,1.3,1.5,1.6,2.4C9.1,24.4,9.2,24.7,9.2,25z"/>
		<path class="st0" d="M8.2,25c-0.2,0-0.4,0-0.6,0c0,0,0,0,0,0c0-0.8-0.4-1.5-0.9-2.1c-0.6-0.8-1.4-1.4-2.3-1.8
			c-0.6-0.3-1.1-0.6-1.8-0.7C2,20.1,1.3,20.1,0.7,20c-0.2,0-0.4,0-0.7,0c0-0.1,0-0.2,0-0.3c0,0,0.1,0,0.1,0c0.5,0,1,0,1.5,0.1
			c0.6,0,1.2,0.1,1.8,0.3c1.4,0.5,2.6,1.2,3.5,2.2c0.6,0.6,1,1.2,1.2,2C8.1,24.6,8.1,24.8,8.2,25z"/>
		<path class="st0" d="M17,3.9c0,0.1,0,0.2,0,0.3c0,0-0.1,0-0.1,0c-0.5,0-1,0-1.4,0c-0.6,0-1.1-0.1-1.6-0.4
			c-0.7-0.4-1.1-0.9-1.3-1.6c-0.1-0.4,0-0.8,0.1-1.2C12.7,0.8,12.8,0.4,13,0c0.2,0,0.4,0,0.6,0c0,0,0,0.1,0,0.1
			c-0.1,0.4-0.3,0.9-0.3,1.3c0,0.4,0,0.8,0.2,1.2c0.4,0.6,1,1,1.8,1.2c0.5,0.1,1,0.1,1.5,0.1C16.8,3.9,16.9,3.9,17,3.9z"/>
		<path class="st0" d="M0,20.6c0-0.1,0-0.2,0-0.3c0.3,0,0.6,0,0.9,0c0.6,0,1.1,0.1,1.7,0.3c1.3,0.4,2.4,1.1,3.3,2
			c0.5,0.5,0.8,1.1,1,1.7C7,24.5,7,24.8,7,25c-0.2,0-0.4,0-0.6,0c0-0.1,0-0.1,0-0.2c-0.1-0.6-0.3-1.1-0.7-1.6
			c-0.8-1.1-2-1.8-3.4-2.3C1.6,20.7,0.8,20.6,0,20.6z"/>
		<path class="st0" d="M5.8,25c-0.2,0-0.5,0-0.7,0c0,0,0-0.1,0-0.1c-0.1-0.4-0.2-0.8-0.4-1.2c-0.3-0.5-0.8-1-1.3-1.4
			c-0.9-0.6-1.8-1-2.9-1.2c-0.1,0-0.3,0-0.4-0.1c0-0.1,0-0.2,0-0.3c0,0,0,0,0,0c0.6,0,1.2,0.1,1.7,0.3c1.1,0.3,2,0.9,2.8,1.6
			c0.5,0.5,0.9,1.1,1.1,1.7C5.7,24.6,5.8,24.8,5.8,25z"/>
		<path class="st0" d="M17,3.6c-0.5,0-1,0-1.5-0.2c-0.6-0.2-1-0.5-1.3-0.9c-0.2-0.3-0.3-0.7-0.4-1c0-0.5,0.1-0.9,0.2-1.4
			c0,0,0-0.1,0-0.1c0.2,0,0.4,0,0.6,0c0,0,0,0,0,0c-0.1,0.4-0.1,0.7-0.1,1.1c0,0.4,0.1,0.8,0.4,1.1c0.5,0.6,1.2,0.9,2.1,1
			C17,3.3,17,3.5,17,3.6z"/>
		<path class="st0" d="M3.8,25c0-0.1-0.1-0.2-0.1-0.3c-0.2-0.7-0.8-1.3-1.5-1.8c-0.7-0.5-1.4-0.8-2.2-1c0-0.1,0-0.3,0-0.4
			c0.8,0.1,1.5,0.3,2.1,0.7c0.8,0.4,1.5,1,1.9,1.7c0.2,0.4,0.4,0.8,0.5,1.2C4.3,25,4,25,3.8,25z"/>
		<path class="st0" d="M17,2.8c-0.2,0-0.5-0.1-0.7-0.2c-0.7-0.4-1.1-0.9-1.2-1.5c-0.1-0.3-0.1-0.6,0-0.9c0,0,0-0.1,0-0.1
			c0.2,0,0.4,0,0.6,0c0,0.3,0,0.6,0.1,0.9C16,1.3,16.2,1.7,16.6,2c0.1,0.1,0.2,0.2,0.4,0.2C17,2.4,17,2.6,17,2.8z"/>
		<path class="st0" d="M17,20.8c0-0.1-0.1-0.3-0.1-0.4c-0.2-0.9-0.3-1.9-0.3-2.9c0-0.6,0.1-1.3,0.2-1.9c0-0.2,0.1-0.5,0.1-0.7
			c0,0,0,0,0-0.1c0,0.6,0,1.1,0,1.7c0,0,0,0,0,0.1c-0.1,0.9-0.1,1.9,0,2.8c0,0.1,0,0.2,0,0.2C17,20.1,17,20.5,17,20.8z"/>
		<path class="st0" d="M0,2.7C0,2.9,0,3,0.1,3.1c0.1,1,0.1,1.9,0,2.9C0.1,6.4,0,6.8,0,7.1c0,0,0,0,0,0.1C0,5.7,0,4.2,0,2.7z"/>
	</g>
</g>
</svg>
