<svg xmlns="http://www.w3.org/2000/svg" viewBox="0 0 452 172"><defs><style>.cls-1{fill:#333;}.cls-2{fill:#5fcd00;}.cls-3{fill:#22062c;}</style></defs><title>rimik</title><g id="Layer_2" data-name="Layer 2"><g id="Layer_2-2" data-name="Layer 2"><path class="cls-1" d="M254,140a38,38,0,0,1-38-38V70a6,6,0,0,1,12,0v32a26,26,0,0,0,52,0,6,6,0,0,1,12,0A38,38,0,0,1,254,140Z"/><path class="cls-1" d="M382,140a38,38,0,0,1-38-38,6,6,0,0,1,12,0,26,26,0,0,0,52,0V70a6,6,0,0,1,12,0v32A38,38,0,0,1,382,140Z"/><path class="cls-1" d="M190,140a38,38,0,0,1-38-38V86a6,6,0,0,1,12,0v16a26,26,0,0,0,52,0V70a6,6,0,0,1,12,0v32A38,38,0,0,1,190,140Z"/><path class="cls-1" d="M126,140H70a6,6,0,0,1,0-12h56a26,26,0,0,0,26-26V77.81a37.77,37.77,0,0,1,27.08-36.4L316.28.25a6,6,0,0,1,3.44,11.5L182.53,52.91A25.84,25.84,0,0,0,164,77.81V102A38,38,0,0,1,126,140Z"/><path class="cls-1" d="M206,172H173.29a6,6,0,1,1,0-12H206a6,6,0,0,1,0,12Z"/><path class="cls-1" d="M425.05,170A6,6,0,0,1,423,158.41,26.11,26.11,0,0,0,440,134V70a6,6,0,0,1,12,0v64a38.16,38.16,0,0,1-24.87,35.67A6.09,6.09,0,0,1,425.05,170Z"/><path class="cls-1" d="M334,140H302a22,22,0,0,1-22-22V86a22,22,0,0,1,22-22h32a22,22,0,0,1,22,22v32A22,22,0,0,1,334,140ZM302,76a10,10,0,0,0-10,10v32a10,10,0,0,0,10,10h32a10,10,0,0,0,10-10V86a10,10,0,0,0-10-10Z"/><path class="cls-1" d="M398,172H365.29a6,6,0,1,1,0-12H398a6,6,0,0,1,0,12Z"/><path class="cls-2" d="M318,116a6,6,0,0,1-4.24-1.76l-16-16a6,6,0,0,1,8.48-8.48l12,12,59.78-52.31a6,6,0,0,1,7.9,9l-64,56A6,6,0,0,1,318,116Z"/><path class="cls-3" d="M102,108H59.35a6,6,0,1,1,0-12H102a18,18,0,0,0,0-36,17.77,17.77,0,0,0-11.15,3.88,6,6,0,0,1-9.15-2.14,24,24,0,0,0-45.39,6.39,6,6,0,0,1-8,4.65A12,12,0,1,0,24,96a6,6,0,0,1,0,12,24,24,0,0,1,0-48c.67,0,1.35,0,2,.08A35.83,35.83,0,0,1,60,36,36.23,36.23,0,0,1,89.15,50.88,29.68,29.68,0,0,1,102,48a30,30,0,0,1,0,60Z"/></g></g></svg>