<svg xmlns="http://www.w3.org/2000/svg" viewBox="0 0 452 214"><defs><style>.cls-1{fill:#fff;}.cls-2{fill:#5fcd00;}.cls-3{fill:#22062c;}</style></defs><title>rimiksite</title><g id="Layer_2" data-name="Layer 2"><g id="Layer_2-2" data-name="Layer 2"><path class="cls-1" d="M254,140a38,38,0,0,1-38-38V70a6,6,0,0,1,12,0v32a26,26,0,0,0,52,0,6,6,0,0,1,12,0A38,38,0,0,1,254,140Z"/><path class="cls-1" d="M382,140a38,38,0,0,1-38-38,6,6,0,0,1,12,0,26,26,0,0,0,52,0V70a6,6,0,0,1,12,0v32A38,38,0,0,1,382,140Z"/><path class="cls-1" d="M190,140a38,38,0,0,1-38-38V86a6,6,0,0,1,12,0v16a26,26,0,0,0,52,0V70a6,6,0,0,1,12,0v32A38,38,0,0,1,190,140Z"/><path class="cls-1" d="M126,140H70a6,6,0,0,1,0-12h56a26,26,0,0,0,26-26V77.81a37.77,37.77,0,0,1,27.08-36.4L316.28.25a6,6,0,0,1,3.44,11.5L182.53,52.91A25.84,25.84,0,0,0,164,77.81V102A38,38,0,0,1,126,140Z"/><path class="cls-1" d="M206,172H173.29a6,6,0,1,1,0-12H206a6,6,0,0,1,0,12Z"/><path class="cls-1" d="M425.05,170A6,6,0,0,1,423,158.41,26.11,26.11,0,0,0,440,134V70a6,6,0,0,1,12,0v64a38.16,38.16,0,0,1-24.87,35.67A6.09,6.09,0,0,1,425.05,170Z"/><path class="cls-1" d="M334,140H302a22,22,0,0,1-22-22V86a22,22,0,0,1,22-22h32a22,22,0,0,1,22,22v32A22,22,0,0,1,334,140ZM302,76a10,10,0,0,0-10,10v32a10,10,0,0,0,10,10h32a10,10,0,0,0,10-10V86a10,10,0,0,0-10-10Z"/><path class="cls-1" d="M398,172H365.29a6,6,0,1,1,0-12H398a6,6,0,0,1,0,12Z"/><path class="cls-2" d="M318,116a6,6,0,0,1-4.24-1.76l-16-16a6,6,0,0,1,8.48-8.48l12,12,59.78-52.31a6,6,0,0,1,7.9,9l-64,56A6,6,0,0,1,318,116Z"/><path class="cls-3" d="M102,108H59.35a6,6,0,1,1,0-12H102a18,18,0,0,0,0-36,17.77,17.77,0,0,0-11.15,3.88,6,6,0,0,1-9.15-2.14,24,24,0,0,0-45.39,6.39,6,6,0,0,1-8,4.65A12,12,0,1,0,24,96a6,6,0,0,1,0,12,24,24,0,0,1,0-48c.67,0,1.35,0,2,.08A35.83,35.83,0,0,1,60,36,36.23,36.23,0,0,1,89.15,50.88,29.68,29.68,0,0,1,102,48a30,30,0,0,1,0,60Z"/><path class="cls-1" d="M70,198.35a.62.62,0,0,1,.37-.53,1.44,1.44,0,0,1,.77-.23.64.64,0,0,1,.69.43l3.76,13.22,2.11-8.15c.11-.38.43-.58,1-.58s.83.2.93.59l2.14,8.14L85.49,198a.66.66,0,0,1,.71-.43,1.44,1.44,0,0,1,.77.23.65.65,0,0,1,.35.53.53.53,0,0,1,0,.2l-4.39,14.8c-.14.43-.53.65-1.17.65s-1.06-.21-1.16-.64L78.67,206l-1.93,7.34c-.12.43-.5.65-1.13.65s-1-.22-1.16-.65L70,198.55A.63.63,0,0,1,70,198.35Z"/><path class="cls-1" d="M110.36,198.35a.63.63,0,0,1,.36-.53,1.47,1.47,0,0,1,.77-.23.64.64,0,0,1,.69.43l3.76,13.22,2.12-8.15c.1-.38.43-.58,1-.58s.83.2.94.59l2.13,8.14L125.84,198a.66.66,0,0,1,.72-.43,1.41,1.41,0,0,1,.76.23.64.64,0,0,1,.36.53.88.88,0,0,1,0,.2l-4.4,14.8c-.13.43-.52.65-1.16.65s-1.06-.21-1.17-.64L119,206l-1.93,7.34c-.12.43-.5.65-1.14.65s-1-.22-1.16-.65l-4.4-14.8A.63.63,0,0,1,110.36,198.35Z"/><path class="cls-1" d="M150.71,198.35a.62.62,0,0,1,.37-.53,1.44,1.44,0,0,1,.77-.23.64.64,0,0,1,.69.43l3.76,13.22,2.11-8.15c.11-.38.43-.58,1-.58s.83.2.93.59l2.14,8.14L166.2,198a.66.66,0,0,1,.72-.43,1.43,1.43,0,0,1,.76.23.64.64,0,0,1,.36.53.49.49,0,0,1,0,.2l-4.39,14.8c-.14.43-.52.65-1.17.65s-1.06-.21-1.16-.64L159.38,206l-1.93,7.34c-.12.43-.5.65-1.13.65s-1-.22-1.16-.65l-4.4-14.8A.71.71,0,0,1,150.71,198.35Z"/><path class="cls-1" d="M191.73,213.56a1.52,1.52,0,0,1-.42-1.07,1.5,1.5,0,0,1,.42-1.07,1.39,1.39,0,0,1,2.05,0,1.52,1.52,0,0,1,0,2.12,1.33,1.33,0,0,1-1,.46A1.38,1.38,0,0,1,191.73,213.56Z"/><path class="cls-1" d="M218.53,213V198.49a.86.86,0,0,1,.27-.63.9.9,0,0,1,.67-.27h4.41c3.51,0,5.27,1.56,5.27,4.66a5,5,0,0,1-.79,2.94,3.89,3.89,0,0,1-2.12,1.51l2.91,5.41a.51.51,0,0,1,.11.35,1.34,1.34,0,0,1-.58,1,1.87,1.87,0,0,1-1.22.48,1.1,1.1,0,0,1-1-.69l-3.16-6.15h-1.87V213a.74.74,0,0,1-.42.67,2.09,2.09,0,0,1-1,.25,2.07,2.07,0,0,1-1-.25A.74.74,0,0,1,218.53,213Zm2.9-8.08h2.45a2.37,2.37,0,1,0,0-4.74h-2.45Z"/><path class="cls-1" d="M253.48,213V198.49a.72.72,0,0,1,.42-.67,2.21,2.21,0,0,1,1-.23,2.13,2.13,0,0,1,1,.23.73.73,0,0,1,.43.67V213a.74.74,0,0,1-.44.67,2.07,2.07,0,0,1-1,.25,2.09,2.09,0,0,1-1-.25A.74.74,0,0,1,253.48,213Z"/><path class="cls-1" d="M281.31,213V199a1.35,1.35,0,0,1,.41-1.09,1.5,1.5,0,0,1,1-.36,2.36,2.36,0,0,1,1.27.29,3.67,3.67,0,0,1,1,1.25l2.74,5,2.74-5a3.45,3.45,0,0,1,1-1.25,2.4,2.4,0,0,1,1.28-.29,1.5,1.5,0,0,1,1,.36,1.35,1.35,0,0,1,.41,1.09V213a.73.73,0,0,1-.43.67,2.21,2.21,0,0,1-2,0,.74.74,0,0,1-.42-.67v-9.57L288.7,208a1,1,0,0,1-1,.58,1,1,0,0,1-1-.58l-2.56-4.81V213a.75.75,0,0,1-.43.67,2.08,2.08,0,0,1-1,.25,2,2,0,0,1-1-.25A.74.74,0,0,1,281.31,213Z"/><path class="cls-1" d="M319.12,213V198.49a.71.71,0,0,1,.43-.67,2.38,2.38,0,0,1,2,0,.71.71,0,0,1,.43.67V213a.74.74,0,0,1-.44.67,2.19,2.19,0,0,1-2,0A.73.73,0,0,1,319.12,213Z"/><path class="cls-1" d="M347,213V198.49a.72.72,0,0,1,.42-.67,2.4,2.4,0,0,1,2.05,0,.72.72,0,0,1,.42.67v6.07l4.81-6.54a1,1,0,0,1,.8-.43,1.71,1.71,0,0,1,1.11.48,1.37,1.37,0,0,1,.56,1,.85.85,0,0,1-.18.55l-4,5,4.85,7.39a.91.91,0,0,1,.16.51,1.3,1.3,0,0,1-.55,1,1.78,1.78,0,0,1-1.19.46,1.09,1.09,0,0,1-1-.56L351,207.08l-1.2,1.51V213a.73.73,0,0,1-.43.67,2.08,2.08,0,0,1-1,.25,2,2,0,0,1-1-.25A.74.74,0,0,1,347,213Z"/><path class="cls-1" d="M381.2,213.56a1.52,1.52,0,0,1-.42-1.07,1.5,1.5,0,0,1,.42-1.07,1.36,1.36,0,0,1,1-.45,1.37,1.37,0,0,1,1,.45,1.52,1.52,0,0,1,0,2.12,1.34,1.34,0,0,1-1,.46A1.38,1.38,0,0,1,381.2,213.56Z"/><path class="cls-1" d="M408.25,213.2v-15a.52.52,0,0,1,.28-.48,1.23,1.23,0,0,1,.65-.17,1.27,1.27,0,0,1,.66.17.52.52,0,0,1,.28.48v15a.55.55,0,0,1-.28.49,1.19,1.19,0,0,1-.66.18,1.15,1.15,0,0,1-.65-.18A.55.55,0,0,1,408.25,213.2Z"/><path class="cls-1" d="M435.54,213.2v-15a.55.55,0,0,1,.19-.44.76.76,0,0,1,.48-.21h4.07a5.75,5.75,0,0,1,3.58,1,4,4,0,0,1,1.36,3.42c0,2.45-1.1,3.89-3.31,4.34l3.29,6.25a.64.64,0,0,1,.09.31.86.86,0,0,1-.36.66,1.16,1.16,0,0,1-.75.3c-.32,0-.6-.24-.85-.73L440,206.65h-2.56v6.55a.55.55,0,0,1-.28.49,1.19,1.19,0,0,1-.66.18,1.15,1.15,0,0,1-.65-.18A.55.55,0,0,1,435.54,213.2Zm1.87-8.1h2.87c2.05,0,3.07-1,3.07-2.92s-1-2.89-3.07-2.89h-2.87Z"/></g></g></svg>