<svg id="Layer_1" data-name="Layer 1" xmlns="http://www.w3.org/2000/svg" viewBox="0 0 512 512"><defs><style>.cls-1{fill:none;}.cls-2{fill:#666666;}.cls-3{fill:#5fcd00;}</style></defs><title>simple</title><rect class="cls-1" width="512" height="512"/><path class="cls-2" d="M109.4,358.63a20.55,20.55,0,0,1-13.6-36A89.18,89.18,0,0,0,126,255.81a20.56,20.56,0,0,1,41.12,0A130.28,130.28,0,0,1,123,353.49,20.47,20.47,0,0,1,109.4,358.63Z"/><path class="cls-2" d="M402.86,358.53a20.46,20.46,0,0,1-13.61-5.15,130.27,130.27,0,0,1-44-97.57,20.56,20.56,0,0,1,41.11,0,89.12,89.12,0,0,0,30.11,66.76,20.56,20.56,0,0,1-13.62,36Z"/><path class="cls-2" d="M311,386H201.37A75.46,75.46,0,0,1,126,310.63V201a75.46,75.46,0,0,1,75.38-75.37H311A75.45,75.45,0,0,1,386.37,201V310.63A75.45,75.45,0,0,1,311,386ZM201.37,166.74A34.3,34.3,0,0,0,167.11,201V310.63a34.3,34.3,0,0,0,34.26,34.26H311a34.3,34.3,0,0,0,34.26-34.26V201A34.3,34.3,0,0,0,311,166.74Z"/><path class="cls-3" d="M256.18,303.78a20.47,20.47,0,0,1-14.53-6l-54.82-54.81a20.56,20.56,0,0,1,29.07-29.07l41.22,41.22L461.91,75.9A20.56,20.56,0,0,1,489,106.84L269.72,298.69A20.52,20.52,0,0,1,256.18,303.78Z"/></svg>