<svg xmlns="http://www.w3.org/2000/svg" viewBox="0 0 292.89 252"><title>Asset 13</title><g id="Layer_2" data-name="Layer 2"><g id="Layer_1-2" data-name="Layer 1"><path d="M225.58,18.29,82.37,3.23C10.76-4.29,10.76-4.29,3.23,67.31s-7.52,71.61,64.08,79.14L210.52,161.5c71.61,7.52,71.61,7.52,79.14-64.08S297.18,25.81,225.58,18.29ZM110.64,78.6A36,36,0,1,1,78.6,39,36,36,0,0,1,110.64,78.6ZM253.85,93.65a36,36,0,1,1-32-39.56A36,36,0,0,1,253.85,93.65Z"/><path d="M193.3,176.57a15,15,0,0,0-12.66-10.17l-63-6.63A15.72,15.72,0,0,0,101.8,170L84,223.21A21.87,21.87,0,0,0,104.79,252H188.1a21.87,21.87,0,0,0,20.75-28.79ZM168.45,230v8H121l36-54H124.45v-8h47.47l-36,54Z"/></g></g></svg>