<svg xmlns="http://www.w3.org/2000/svg" viewBox="0 0 216 66.88"><defs><style>.cls-1{fill:#fff;}</style></defs><title>Asset 2</title><g id="Layer_2" data-name="Layer 2"><g id="Layer_1-2" data-name="Layer 1"><path class="cls-1" d="M21,30.31H0V27.15L17.67,2.36V2.18H3.19v6.4a1.73,1.73,0,0,1-.31,1.14,1.07,1.07,0,0,1-.81.33,1,1,0,0,1-.78-.33A1.73,1.73,0,0,1,1,8.58V0H19.77V3.08L2.1,27.9v.24H18.78v-7.6a1.73,1.73,0,0,1,.3-1.14,1.11,1.11,0,0,1,1.58,0,1.73,1.73,0,0,1,.3,1.14Z"/><path class="cls-1" d="M65.32,20.18H51l-2.93,8h4.17a1.69,1.69,0,0,1,1.12.29,1,1,0,0,1,.33.79,1,1,0,0,1-.33.78,1.63,1.63,0,0,1-1.12.31H44.13A1.63,1.63,0,0,1,43,30a1,1,0,0,1-.33-.78,1,1,0,0,1,.33-.79,1.69,1.69,0,0,1,1.12-.29h1.68l9.61-26H49a1.64,1.64,0,0,1-1.11-.3,1,1,0,0,1-.34-.79A1,1,0,0,1,47.89.3,1.64,1.64,0,0,1,49,0H60L70.58,28.14h1.68a1.69,1.69,0,0,1,1.12.29,1,1,0,0,1,.33.79,1,1,0,0,1-.33.78,1.63,1.63,0,0,1-1.12.31H64.15A1.63,1.63,0,0,1,63,30a1,1,0,0,1-.34-.78,1,1,0,0,1,.34-.79,1.69,1.69,0,0,1,1.13-.29H68.3ZM64.49,18l-6-15.83h-.8L51.85,18Z"/><path class="cls-1" d="M97.38,28.14v-26H95.54a1.69,1.69,0,0,1-1.12-.3,1,1,0,0,1-.33-.79A1,1,0,0,1,94.42.3,1.69,1.69,0,0,1,95.54,0h11.71a11,11,0,0,1,5,1.14,10.44,10.44,0,0,1,3.46,2.59,18.84,18.84,0,0,1,3.11,5.21,13.38,13.38,0,0,1,.75,4.71v3a14.89,14.89,0,0,1-1.48,6.47,13.6,13.6,0,0,1-4.92,5.47,10.45,10.45,0,0,1-5.93,1.71H95.54A1.63,1.63,0,0,1,94.42,30a1,1,0,0,1-.33-.78,1,1,0,0,1,.33-.79,1.69,1.69,0,0,1,1.12-.29Zm2.17,0h7.91a8.45,8.45,0,0,0,5.14-1.79,11.52,11.52,0,0,0,3.6-4.29,11.35,11.35,0,0,0,1.2-4.94V13.19a9.44,9.44,0,0,0-.64-3.6,16.92,16.92,0,0,0-2.65-4.38,8.61,8.61,0,0,0-2.74-2.09,8.36,8.36,0,0,0-3.91-.94H99.55Z"/><path class="cls-1" d="M160.83,20.18h-14.3l-2.92,8h4.17a1.66,1.66,0,0,1,1.11.29,1,1,0,0,1,.34.79,1,1,0,0,1-.34.78,1.6,1.6,0,0,1-1.11.31h-8.14a1.58,1.58,0,0,1-1.11-.31,1,1,0,0,1-.34-.78,1,1,0,0,1,.34-.79,1.64,1.64,0,0,1,1.11-.29h1.69l9.61-26h-6.43a1.64,1.64,0,0,1-1.11-.3,1,1,0,0,1-.34-.79A1,1,0,0,1,143.4.3a1.64,1.64,0,0,1,1.11-.3h11l10.62,28.14h1.69a1.66,1.66,0,0,1,1.11.29,1,1,0,0,1,.34.79,1,1,0,0,1-.34.78,1.6,1.6,0,0,1-1.11.31h-8.11a1.64,1.64,0,0,1-1.14-.31,1,1,0,0,1-.34-.78,1,1,0,0,1,.34-.79,1.7,1.7,0,0,1,1.14-.29h4.14ZM160,18,154,2.18h-.8L147.36,18Z"/><path class="cls-1" d="M194.37,18.45v9.69h4a1.7,1.7,0,0,1,1.14.29,1,1,0,0,1,.34.79,1,1,0,0,1-.34.78,1.64,1.64,0,0,1-1.14.31h-9.12a1.62,1.62,0,0,1-1.11-.31,1,1,0,0,1-.34-.78,1,1,0,0,1,.34-.79,1.68,1.68,0,0,1,1.11-.29h2.93v-26h-2.93a1.67,1.67,0,0,1-1.11-.3,1,1,0,0,1-.34-.79,1,1,0,0,1,.34-.79,1.67,1.67,0,0,1,1.11-.3h9.12a1.69,1.69,0,0,1,1.14.3,1,1,0,0,1,.34.79,1,1,0,0,1-.34.79,1.69,1.69,0,0,1-1.14.3h-4V15.57l15-13.39H207a1.71,1.71,0,0,1-1.14-.3,1,1,0,0,1-.34-.79,1,1,0,0,1,.34-.79A1.71,1.71,0,0,1,207,0h6.4a1.64,1.64,0,0,1,1.11.3,1,1,0,0,1,.34.79,1,1,0,0,1-.34.79,1.64,1.64,0,0,1-1.11.3h-.88l-12,10.7A14.29,14.29,0,0,1,205,15.6a17.79,17.79,0,0,1,3.39,4.63c.63,1.13,1.77,3.76,3.42,7.91h2.72a1.7,1.7,0,0,1,1.14.29,1,1,0,0,1,.34.79,1,1,0,0,1-.34.78,1.64,1.64,0,0,1-1.14.31h-4.19c-2.28-6.23-4.2-10.25-5.76-12a12.37,12.37,0,0,0-5.82-3.77Z"/><path class="cls-1" d="M1.28,64.5V56.39a1.48,1.48,0,0,1-1-.3A1,1,0,0,1,0,55.35a1,1,0,0,1,.32-.76,1.59,1.59,0,0,1,1.07-.29H5.73a5.39,5.39,0,0,1,2,.38,4.49,4.49,0,0,1,1.56,1,7.16,7.16,0,0,1,.92,1.19,6.68,6.68,0,0,1,.72,1.51,5.74,5.74,0,0,1,.25,1.83v1a5.66,5.66,0,0,1-.45,2.33,4.52,4.52,0,0,1-1.17,1.66,5.73,5.73,0,0,1-1.36.95,6.27,6.27,0,0,1-2.62.47H1.39a1.54,1.54,0,0,1-1.07-.29A1,1,0,0,1,0,65.53a1,1,0,0,1,.32-.75A1.35,1.35,0,0,1,1.28,64.5Zm2.08,0h2.2a3.91,3.91,0,0,0,1.86-.35A3.23,3.23,0,0,0,8.66,63a3.66,3.66,0,0,0,.41-1.86v-1A3.76,3.76,0,0,0,8.7,58.4a3.64,3.64,0,0,0-1.32-1.58,3.55,3.55,0,0,0-1.84-.43H3.36Z"/><path class="cls-1" d="M26.58,61.45v3h5.29V63.38a1.59,1.59,0,0,1,.29-1.07,1,1,0,0,1,1.5,0A1.59,1.59,0,0,1,34,63.38v3.19H24.19a1.54,1.54,0,0,1-1.07-.29,1,1,0,0,1,0-1.49,1.61,1.61,0,0,1,1.07-.29h.32V56.39h-.32a1.59,1.59,0,0,1-1.07-.29,1,1,0,0,1-.32-.75,1,1,0,0,1,.32-.76,1.59,1.59,0,0,1,1.07-.29h9.3v3.16a1.6,1.6,0,0,1-.28,1.06,1.06,1.06,0,0,1-1.5,0,1.51,1.51,0,0,1-.29-1.06V56.39H26.58v3H28.4a2.08,2.08,0,0,1,.16-1,1,1,0,0,1,.89-.5,1,1,0,0,1,.74.32,1.59,1.59,0,0,1,.29,1.07v2.39a1.85,1.85,0,0,1-.16.91,1,1,0,0,1-.87.47,1,1,0,0,1-.89-.49,2.18,2.18,0,0,1-.16-1.06Z"/><path class="cls-1" d="M51.5,63.55l3-7.16H54A1.59,1.59,0,0,1,53,56.1a1,1,0,0,1-.32-.75,1,1,0,0,1,.32-.76A1.59,1.59,0,0,1,54,54.3h2.78a1.56,1.56,0,0,1,1.06.29.93.93,0,0,1,.32.75,1,1,0,0,1-.48.88,2,2,0,0,1-1,.16L52.5,66.57h-2L46.26,56.39a2,2,0,0,1-1-.16,1,1,0,0,1-.17-1.64,1.59,1.59,0,0,1,1.07-.29H49a1.6,1.6,0,0,1,1.06.29,1.06,1.06,0,0,1,0,1.5,1.56,1.56,0,0,1-1.06.29h-.49Z"/><path class="cls-1" d="M72.16,61.45v3h5.29V63.38a1.59,1.59,0,0,1,.29-1.07,1,1,0,0,1,1.5,0,1.59,1.59,0,0,1,.29,1.07v3.19H69.76a1.53,1.53,0,0,1-1.06-.29,1,1,0,0,1,0-1.49,1.6,1.6,0,0,1,1.06-.29h.33V56.39h-.33a1.58,1.58,0,0,1-1.06-.29,1,1,0,0,1-.32-.75,1,1,0,0,1,.32-.76,1.58,1.58,0,0,1,1.06-.29h9.31v3.16a1.6,1.6,0,0,1-.28,1.06,1.06,1.06,0,0,1-1.5,0A1.51,1.51,0,0,1,77,57.47V56.39H72.16v3H74a2.25,2.25,0,0,1,.15-1,1,1,0,0,1,.89-.5,1,1,0,0,1,.75.32,1.59,1.59,0,0,1,.29,1.07v2.39a1.72,1.72,0,0,1-.17.91,1,1,0,0,1-1.76,0A2.35,2.35,0,0,1,74,61.45Z"/><path class="cls-1" d="M96.22,56.39V64.5h4.47v-2a1.6,1.6,0,0,1,.28-1.07,1,1,0,0,1,.76-.32,1,1,0,0,1,.74.32,1.59,1.59,0,0,1,.29,1.07v4H92.94a1.54,1.54,0,0,1-1.07-.29,1,1,0,0,1,0-1.49,1.59,1.59,0,0,1,1.07-.29h1.2V56.39h-1.2a1.59,1.59,0,0,1-1.07-.29,1,1,0,0,1-.32-.75,1,1,0,0,1,.32-.76,1.59,1.59,0,0,1,1.07-.29h4.49a1.61,1.61,0,0,1,1.07.29,1,1,0,0,1,0,1.5,1.61,1.61,0,0,1-1.07.29Z"/><path class="cls-1" d="M125.69,60.44a6.39,6.39,0,0,1-1.75,4.6,5.49,5.49,0,0,1-4.06,1.84,5.42,5.42,0,0,1-3.75-1.53,6.88,6.88,0,0,1,0-9.82,5.38,5.38,0,0,1,7.81.31A6.39,6.39,0,0,1,125.69,60.44Zm-2.07,0a4.41,4.41,0,0,0-1.15-3.13,3.32,3.32,0,0,0-5.18,0,4.81,4.81,0,0,0,0,6.24,3.33,3.33,0,0,0,5.18,0A4.4,4.4,0,0,0,123.62,60.44Z"/><path class="cls-1" d="M141.46,62.36V64.5h2.1a1.58,1.58,0,0,1,1.06.29,1,1,0,0,1,0,1.49,1.53,1.53,0,0,1-1.06.29h-4.5a1.51,1.51,0,0,1-1.06-.29.93.93,0,0,1-.32-.75,1,1,0,0,1,.32-.74,1.6,1.6,0,0,1,1.06-.29h.33V56.39h-.33A1.56,1.56,0,0,1,138,56.1a.93.93,0,0,1-.32-.75,1,1,0,0,1,.32-.76,1.56,1.56,0,0,1,1.06-.29h4.78a4.71,4.71,0,0,1,3.33,1.15,3.69,3.69,0,0,1,1.23,2.8A3.79,3.79,0,0,1,148,60a4,4,0,0,1-1.05,1.2,5.87,5.87,0,0,1-1.5.89,5.65,5.65,0,0,1-2,.29Zm0-2.07h1.92a3.41,3.41,0,0,0,2.15-.61,1.82,1.82,0,0,0,.8-1.47,1.65,1.65,0,0,0-.65-1.28,2.76,2.76,0,0,0-1.83-.54h-2.39Z"/><path class="cls-1" d="M163.32,61.45v3h5.29V63.38a1.59,1.59,0,0,1,.29-1.07,1,1,0,0,1,.75-.32,1,1,0,0,1,.75.32,1.6,1.6,0,0,1,.28,1.07v3.19h-9.76a1.51,1.51,0,0,1-1.06-.29,1,1,0,0,1,0-1.49,1.6,1.6,0,0,1,1.06-.29h.33V56.39h-.33a1.56,1.56,0,0,1-1.06-.29.93.93,0,0,1-.32-.75,1,1,0,0,1,.32-.76,1.56,1.56,0,0,1,1.06-.29h9.31v3.16a1.66,1.66,0,0,1-.28,1.06,1,1,0,0,1-.75.31,1,1,0,0,1-.76-.31,1.57,1.57,0,0,1-.28-1.06V56.39h-4.84v3h1.82a2.25,2.25,0,0,1,.15-1,1,1,0,0,1,.89-.5,1,1,0,0,1,.75.32,1.6,1.6,0,0,1,.28,1.07v2.39a1.74,1.74,0,0,1-.16.91,1,1,0,0,1-1.76,0,2.35,2.35,0,0,1-.15-1.06Z"/><path class="cls-1" d="M186.1,61.89V64.5h.75a1.61,1.61,0,0,1,1.07.29,1.05,1.05,0,0,1,0,1.49,1.56,1.56,0,0,1-1.07.29H183.7a1.56,1.56,0,0,1-1.07-.29,1,1,0,0,1-.31-.75.93.93,0,0,1,.32-.74,1.6,1.6,0,0,1,1.06-.29H184V56.39h-.33a1.61,1.61,0,0,1-1.07-.29,1,1,0,0,1-.31-.75,1,1,0,0,1,.31-.76,1.61,1.61,0,0,1,1.07-.29h4.7a4.94,4.94,0,0,1,3.4,1.09A3.43,3.43,0,0,1,193,58.05a3,3,0,0,1-.57,1.76,4.93,4.93,0,0,1-1.71,1.41,13.68,13.68,0,0,1,1.41,1.48,19.86,19.86,0,0,1,1.25,1.8,2.13,2.13,0,0,1,1,.16,1.06,1.06,0,0,1,.15,1.62,1.54,1.54,0,0,1-1.07.29h-1.18q-2.52-3.88-4.18-4.68Zm0-2.07h1.62a4.32,4.32,0,0,0,1.61-.28,3.1,3.1,0,0,0,1.28-.77,1.3,1.3,0,0,0,.32-.79,1.38,1.38,0,0,0-.62-1.09,2.85,2.85,0,0,0-1.83-.5H186.1Z"/><path class="cls-1" d="M208,66.05a1.89,1.89,0,0,1-.44.41.86.86,0,0,1-.41.09.94.94,0,0,1-.76-.32,1.5,1.5,0,0,1-.29-1v-1.4a1.56,1.56,0,0,1,.29-1.07,1,1,0,0,1,.76-.31,1,1,0,0,1,.61.19,1.2,1.2,0,0,1,.38.64,1.87,1.87,0,0,0,.27.61,3.36,3.36,0,0,0,1.05.64,4,4,0,0,0,1.63.32,3.77,3.77,0,0,0,2.28-.64,1.17,1.17,0,0,0,.57-1,1.11,1.11,0,0,0-.28-.72,2,2,0,0,0-.89-.56,13.36,13.36,0,0,0-1.81-.41,10.13,10.13,0,0,1-2.57-.76A3.4,3.4,0,0,1,207,59.47a3.22,3.22,0,0,1-.51-1.75,3.4,3.4,0,0,1,1.25-2.6A4.62,4.62,0,0,1,211,54a5.72,5.72,0,0,1,1.48.18,4.2,4.2,0,0,1,1.24.54,1.2,1.2,0,0,1,.81-.4,1,1,0,0,1,.75.32,1.58,1.58,0,0,1,.28,1.06v1.56a1.57,1.57,0,0,1-.28,1.06,1,1,0,0,1-.75.32,1,1,0,0,1-.66-.23,1.16,1.16,0,0,1-.34-.69,2,2,0,0,0-.28-.74,2.26,2.26,0,0,0-.88-.64,3.2,3.2,0,0,0-1.36-.27,2.78,2.78,0,0,0-1.77.52,1.42,1.42,0,0,0-.65,1.09,1.22,1.22,0,0,0,.26.75,1.84,1.84,0,0,0,.79.56,16.47,16.47,0,0,0,1.93.45,12.2,12.2,0,0,1,2.45.69,3.35,3.35,0,0,1,1.42,1.17,3.21,3.21,0,0,1,.57,1.9,3.06,3.06,0,0,1-1.08,2.46,5.48,5.48,0,0,1-3.66,1.22,6.67,6.67,0,0,1-1.68-.21A7.3,7.3,0,0,1,208,66.05Z"/></g></g></svg>